[img]http://www.aedes.us/e/iW1Hu.gif[/img]

Plot:
Three married couples trying to spice up their marriages go on a retreat run by a sexy psychologist and her handsome husband at a tranquil Malibu estate. Encouraged to share their innermost feelings, the fun begins when secrets are revealed and hearts are challenged. How far will each couple go to save their marriage?

IMDB:
www.imdb.com/title/tt2137376/

Information:
Format                           : Matroska
Format version                   : Version 2
File size                        : 1.40 GiB
Duration                         : 1h 49mn
Overall bit rate                 : 1 835 Kbps
Encoded date                     : UTC 2012-02-16 16:40:10
Writing application              : mkvmerge v5.2.1 ('A Far Off Place') built on Jan  2 2012 23:21:10
Writing library                  : libebml v1.2.3 + libmatroska v1.3.0

Video
ID                               : 1
Format                           : AVC
Format/Info                      : Advanced Video Codec
Format profile                   : High@L5.1
Format settings, CABAC           : Yes
Format settings, ReFrames        : 6 frames
Codec ID                         : V_MPEG4/ISO/AVC
Duration                         : 1h 49mn
Bit rate                         : 1 610 Kbps
Width                            : 720 pixels
Height                           : 384 pixels
Display aspect ratio             : 1.875
Frame rate                       : 29.970 fps
Color space                      : YUV
Chroma subsampling               : 4:2:0
Bit depth                        : 8 bits
Scan type                        : Progressive
Bits/(Pixel*Frame)               : 0.194
Stream size                      : 1.20 GiB (86%)
Writing library                  : x264 core 120 r2164 da19765

Audio
ID                               : 2
Format                           : AC-3
Format/Info                      : Audio Coding 3
Mode extension                   : CM (complete main)
Codec ID                         : A_AC3
Duration                         : 1h 49mn
Bit rate mode                    : Constant
Bit rate                         : 224 Kbps
Channel(s)                       : 6 channels
Channel positions                : Front: L C R, Side: L R, LFE
Sampling rate                    : 48.0 KHz
Bit depth                        : 16 bits
Compression mode                 : Lossy
Stream size                      : 175 MiB (12%)

[img]http://www.aedes.us/e/Cfu3N.jpg[/img]
[img]http://www.aedes.us/e/z82nW.jpg[/img]
[img]http://www.aedes.us/e/VvRcr.jpg[/img]
[img]http://www.aedes.us/e/VkfqB.jpg[/img]
[img]http://www.aedes.us/e/XTiG5.jpg[/img]
[img]http://www.aedes.us/e/Knckl.jpg[/img]
[img]http://www.aedes.us/e/AmB4.jpg[/img]